<svg xmlns="http://www.w3.org/2000/svg" version="1.1" xmlns:xlink="http://www.w3.org/1999/xlink" xmlns:svgjs="http://svgjs.com/svgjs" width="256" height="256"><svg xmlns="http://www.w3.org/2000/svg" width="256" height="256" viewBox="0 0 100 100"><rect width="100" height="100" rx="20" fill="#4a90e2"></rect><path d="M38.49 64.74L38.49 50.38L26.91 50.38L26.91 48.03L38.49 48.03L38.49 35.26L30.43 35.26Q28.58 35.26 27.50 36.25Q26.42 37.25 26.19 39.20L26.19 39.20L25.95 41.26L23.47 41.26L23.70 32.87L47.89 32.87L47.89 34.88L47.26 34.88Q45.03 34.88 44.19 35.71Q43.34 36.55 43.34 38.33L43.34 38.33L43.34 61.91Q43.34 63.52 44.18 64.32Q45.01 65.12 47.26 65.12L47.26 65.12L47.89 65.12L47.89 67.13L22.16 67.13L21.83 58.74L24.34 58.74L24.66 60.80Q24.95 62.70 26.11 63.72Q27.27 64.74 29.21 64.74L29.21 64.74L38.49 64.74ZM76.74 41.45L76.74 41.45Q76.74 43.06 76.29 44.28Q75.83 45.50 75.03 46.41Q74.23 47.33 73.14 47.95Q72.05 48.57 70.79 48.99L70.79 48.99L70.79 49.18Q72.43 49.46 73.79 50.14Q75.15 50.82 76.12 51.91Q77.09 53 77.63 54.49Q78.17 55.98 78.17 57.88L78.17 57.88Q78.17 62.52 75.13 64.82Q72.08 67.13 65.84 67.13L65.84 67.13L51.55 67.13L51.55 65.12L52.16 65.12Q52.98 65.12 53.69 65Q54.41 64.88 54.95 64.52Q55.48 64.16 55.79 63.48Q56.09 62.80 56.09 61.67L56.09 61.67L56.09 38.14Q56.09 37.09 55.78 36.44Q55.46 35.80 54.92 35.45Q54.38 35.09 53.67 34.99Q52.95 34.88 52.16 34.88L52.16 34.88L51.55 34.88L51.55 32.87L64.41 32.87Q70.65 32.87 73.70 34.94Q76.74 37.02 76.74 41.45ZM60.95 50.38L60.95 64.74L65.61 64.74Q67.65 64.74 69.05 64.37Q70.46 63.99 71.35 63.16Q72.24 62.33 72.64 60.99Q73.04 59.66 73.04 57.73L73.04 57.73Q73.04 55.86 72.69 54.48Q72.34 53.09 71.48 52.18Q70.63 51.27 69.22 50.82Q67.81 50.38 65.70 50.38L65.70 50.38L60.95 50.38ZM60.95 35.26L60.95 47.98L64.27 47.98Q66.38 47.98 67.79 47.61Q69.20 47.23 70.04 46.45Q70.88 45.66 71.25 44.42Q71.61 43.18 71.61 41.45L71.61 41.45Q71.61 39.69 71.21 38.50Q70.81 37.32 69.92 36.59Q69.03 35.87 67.61 35.56Q66.20 35.26 64.16 35.26L64.16 35.26L60.95 35.26Z" fill="#ffffff"></path></svg><style>@media (prefers-color-scheme: light) { :root { filter: none; } }</style></svg>
